<svg width="24" height="24" viewBox="0 0 24 24" fill="none" xmlns="http://www.w3.org/2000/svg">
<path fill-rule="evenodd" clip-rule="evenodd" d="M15.8365 10.5102C15.1916 8.24633 12.9916 6.96524 10.9703 7.5193C8.96003 8.07035 7.72328 10.2731 8.29978 12.5364C8.33765 12.626 8.35859 12.7246 8.35859 12.828C8.35859 13.2422 8.0228 13.578 7.60859 13.578H5.55303C4.41917 13.578 3.5 14.4972 3.5 15.631C3.5 16.7649 4.41917 17.6841 5.55303 17.6841L17.2613 17.6841C17.2617 17.6841 17.2621 17.684 17.2626 17.684C19.0478 17.6772 20.4934 16.2315 20.5 14.4461C20.5 14.4459 20.5 14.4464 20.5 14.4461L20.5 14.3874C20.4938 12.6017 19.048 11.1556 17.2624 11.1487C17.2621 11.1487 17.2617 11.1487 17.2613 11.1487L16.5783 11.1487C16.202 11.1487 15.8904 10.8716 15.8365 10.5102ZM17.1315 9.64874C16.1283 6.94905 13.326 5.31824 10.5738 6.07267C7.9559 6.79026 6.39946 9.38737 6.69578 12.078H5.55303C3.59075 12.078 2 13.6688 2 15.631C2 17.5933 3.59075 19.1841 5.55303 19.1841L17.2639 19.184L17.2665 19.184C19.877 19.175 21.9909 17.061 22 14.4506L22 14.4485L22 14.3842L22 14.3822C21.9909 11.7718 19.877 9.65781 17.2665 9.64874L17.1315 9.64874Z" fill="black"/>
</svg>
