<svg width="24" height="24" viewBox="0 0 24 24" fill="none" xmlns="http://www.w3.org/2000/svg">
<path fill-rule="evenodd" clip-rule="evenodd" d="M9.117 2.15942H14.883C15.9751 2.15942 16.8406 2.15941 17.5383 2.21641C18.2517 2.2747 18.8553 2.39631 19.4065 2.67714C20.3002 3.13254 21.0269 3.8592 21.4823 4.75297C21.7631 5.30414 21.8847 5.90777 21.943 6.62116C22 7.31878 22 8.18427 22 9.2764V11.4581C22 12.5502 22 13.4157 21.943 14.1133C21.8847 14.8267 21.7631 15.4303 21.4823 15.9815C21.0269 16.8753 20.3002 17.6019 19.4065 18.0573C18.8553 18.3382 18.2517 18.4598 17.5383 18.5181C16.9012 18.5701 16.1242 18.5746 15.1624 18.575V20.3406H16.3831C16.7973 20.3406 17.1331 20.6764 17.1331 21.0906C17.1331 21.5048 16.7973 21.8406 16.3831 21.8406H14.4158C14.4146 21.8406 14.4135 21.8406 14.4124 21.8406C14.4112 21.8406 14.4101 21.8406 14.4089 21.8406H9.591C9.58986 21.8406 9.58872 21.8406 9.58758 21.8406C9.58644 21.8406 9.5853 21.8406 9.58416 21.8406H7.61615C7.20194 21.8406 6.86615 21.5048 6.86615 21.0906C6.86615 20.6764 7.20194 20.3406 7.61615 20.3406H8.83758V18.575C7.87581 18.5746 7.09878 18.5701 6.46173 18.5181C5.74834 18.4598 5.14472 18.3382 4.59355 18.0573C3.69978 17.6019 2.97312 16.8753 2.51772 15.9815C2.23688 15.4303 2.11527 14.8267 2.05699 14.1133C1.99999 13.4157 1.99999 12.5502 2 11.4581V9.27643C1.99999 8.18428 1.99999 7.31878 2.05699 6.62116C2.11527 5.90777 2.23688 5.30414 2.51772 4.75297C2.97312 3.8592 3.69978 3.13254 4.59355 2.67714C5.14472 2.39631 5.74834 2.2747 6.46173 2.21641C7.15936 2.15941 8.02486 2.15942 9.117 2.15942ZM10.3376 18.5751V20.3406H13.6624V18.5751H10.3376ZM6.58388 3.71143C5.96325 3.76214 5.579 3.85852 5.27453 4.01365C4.663 4.32524 4.16582 4.82243 3.85423 5.43395C3.69909 5.73843 3.60271 6.12268 3.55201 6.74331C3.50058 7.37269 3.5 8.17694 3.5 9.30943V11.425C3.5 11.4752 3.5 11.5247 3.50001 11.5736H20.5C20.5 11.5247 20.5 11.4752 20.5 11.425V9.30942C20.5 8.17694 20.4994 7.37269 20.448 6.74331C20.3973 6.12268 20.3009 5.73843 20.1458 5.43395C19.8342 4.82243 19.337 4.32524 18.7255 4.01365C18.421 3.85852 18.0367 3.76214 17.4161 3.71143C16.7867 3.66001 15.9825 3.65942 14.85 3.65942H9.15C8.01752 3.65942 7.21326 3.66001 6.58388 3.71143ZM20.49 13.0736H3.50995C3.51727 13.4196 3.52997 13.7215 3.55201 13.9912C3.60271 14.6118 3.69909 14.996 3.85423 15.3005C4.16582 15.912 4.663 16.4092 5.27453 16.7208C5.579 16.876 5.96325 16.9723 6.58388 17.023C7.21326 17.0745 8.01752 17.0751 9.15 17.0751H14.85C15.9825 17.0751 16.7867 17.0745 17.4161 17.023C18.0367 16.9723 18.421 16.876 18.7255 16.7208C19.337 16.4092 19.8342 15.912 20.1458 15.3005C20.3009 14.996 20.3973 14.6118 20.448 13.9912C20.47 13.7215 20.4827 13.4196 20.49 13.0736Z" fill="black"/>
</svg>
