<svg width="24" height="24" viewBox="0 0 24 24" fill="none" xmlns="http://www.w3.org/2000/svg">
<path fill-rule="evenodd" clip-rule="evenodd" d="M12.0004 3.5C9.47035 3.5 7.37263 5.35678 6.9979 7.78187C6.95951 8.03034 7.07399 8.3522 7.38868 8.74121C8.29495 9.86151 8.87585 11.2956 9.24145 12.6288C9.54273 13.7274 9.70823 14.7963 9.78156 15.6376H14.2192C14.2925 14.7963 14.458 13.7274 14.7593 12.6288C15.1249 11.2956 15.7058 9.86151 16.6121 8.74121C16.9267 8.3522 17.0412 8.03034 17.0028 7.78187C16.6281 5.35678 14.5304 3.5 12.0004 3.5ZM5.5155 7.55281C6.00148 4.40764 8.71907 2 12.0004 2C15.2817 2 17.9992 4.40764 18.4852 7.55281C18.6213 8.43349 18.1821 9.18532 17.7782 9.6846C17.0538 10.5802 16.5437 11.7937 16.2059 13.0255C15.8701 14.2499 15.7198 15.4362 15.682 16.2295C15.6581 16.7312 15.2459 17.1376 14.731 17.1376H9.26976C8.75483 17.1376 8.34267 16.7312 8.31877 16.2295C8.28096 15.4362 8.13063 14.2499 7.79486 13.0255C7.45707 11.7937 6.94697 10.5802 6.22249 9.6846C5.81859 9.18532 5.37942 8.43349 5.5155 7.55281ZM9.04763 18.8188C9.04763 18.4046 9.38341 18.0688 9.79763 18.0688H14.2042C14.6184 18.0688 14.9542 18.4046 14.9542 18.8188C14.9542 19.233 14.6184 19.5688 14.2042 19.5688H9.79763C9.38341 19.5688 9.04763 19.233 9.04763 18.8188ZM10.1492 21.25C10.1492 20.8358 10.485 20.5 10.8992 20.5H13.1025C13.5167 20.5 13.8525 20.8358 13.8525 21.25C13.8525 21.6642 13.5167 22 13.1025 22H10.8992C10.485 22 10.1492 21.6642 10.1492 21.25Z" fill="black"/>
</svg>
